<svg width="20" height="20" viewBox="0 0 20 20" fill="none" xmlns="http://www.w3.org/2000/svg">
<path fill-rule="evenodd" clip-rule="evenodd" d="M0.150202 0.150202C0.350471 -0.0500672 0.675171 -0.0500672 0.875439 0.150202L19.8498 19.1246C20.0501 19.3248 20.0501 19.6495 19.8498 19.8498C19.6495 20.0501 19.3248 20.0501 19.1246 19.8498L0.150202 0.875439C-0.0500672 0.675171 -0.0500672 0.350471 0.150202 0.150202Z" fill="#759C4B"/>
<path fill-rule="evenodd" clip-rule="evenodd" d="M19.8498 0.150202C20.0501 0.350471 20.0501 0.675171 19.8498 0.875439L0.875439 19.8498C0.675171 20.0501 0.350471 20.0501 0.150202 19.8498C-0.0500672 19.6495 -0.0500672 19.3248 0.150202 19.1246L19.1246 0.150202C19.3248 -0.0500672 19.6495 -0.0500672 19.8498 0.150202Z" fill="#759C4B"/>
</svg>
