<svg width="24" height="24" viewBox="0 0 24 24" fill="none" xmlns="http://www.w3.org/2000/svg">
<path fill-rule="evenodd" clip-rule="evenodd" d="M2 6.5C2 6.22386 2.22386 6 2.5 6H21.5C21.7761 6 22 6.22386 22 6.5C22 6.77614 21.7761 7 21.5 7H2.5C2.22386 7 2 6.77614 2 6.5Z" fill="#759C4B"/>
<path fill-rule="evenodd" clip-rule="evenodd" d="M2 11.5C2 11.2239 2.22386 11 2.5 11H21.5C21.7761 11 22 11.2239 22 11.5C22 11.7761 21.7761 12 21.5 12H2.5C2.22386 12 2 11.7761 2 11.5Z" fill="#759C4B"/>
<path fill-rule="evenodd" clip-rule="evenodd" d="M2 16.5C2 16.2239 2.22386 16 2.5 16H21.5C21.7761 16 22 16.2239 22 16.5C22 16.7761 21.7761 17 21.5 17H2.5C2.22386 17 2 16.7761 2 16.5Z" fill="#759C4B"/>
</svg>
